<svg xmlns="http://www.w3.org/2000/svg" xmlns:xlink="http://www.w3.org/1999/xlink" width="440" height="335" viewBox="0 0 440 335">
  <defs>
    <clipPath id="clip-Lisbys10">
      <rect width="440" height="335"/>
    </clipPath>
  </defs>
  <g id="Lisbys10" clip-path="url(#clip-Lisbys10)">
    <g id="Group_7450" data-name="Group 7450" transform="translate(-28.781 12.567)">
      <path id="Path_23207" data-name="Path 23207" d="M403.767,49.869c-49.587-25.218-78.359,16.09-132.14,20.389S208.112,45.6,155.7,52.4c-46.929,6.091-62.516,44.967-84.226,87.092s-24.934,27.866-34.8,69.418,32.133,78.208,32.133,78.208H426.2c21.216-1.719,41.378-24.617,42.446-59.582,2.048-67.023-20.476-65.623-21.463-94.566s6.167-57.886-43.419-83.1Z" transform="translate(0 0)" fill="#fff" opacity="0.9"/>
      <g id="Group_7385" data-name="Group 7385" transform="translate(106.021 100.016)">
        <rect id="Rectangle_5290" data-name="Rectangle 5290" width="75.791" height="167.49" rx="18.996" fill="#4188e4"/>
        <rect id="Rectangle_5291" data-name="Rectangle 5291" width="66.716" height="37.795" transform="translate(4.546 13.659)" fill="#142666"/>
        <rect id="Rectangle_5292" data-name="Rectangle 5292" width="66.716" height="37.795" transform="translate(4.546 54.897)" fill="#142666"/>
        <rect id="Rectangle_5293" data-name="Rectangle 5293" width="66.716" height="37.795" transform="translate(4.546 96.134)" fill="#142666"/>
      </g>
      <g id="Group_7386" data-name="Group 7386" transform="translate(195.947 100.016)">
        <rect id="Rectangle_5294" data-name="Rectangle 5294" width="135.45" height="167.49" rx="18.996" fill="#4188e4"/>
        <rect id="Rectangle_5295" data-name="Rectangle 5295" width="119.232" height="37.795" transform="translate(8.124 13.659)" fill="#142666"/>
        <rect id="Rectangle_5296" data-name="Rectangle 5296" width="119.232" height="37.795" transform="translate(8.124 54.897)" fill="#142666"/>
        <rect id="Rectangle_5297" data-name="Rectangle 5297" width="119.232" height="37.795" transform="translate(8.124 96.134)" fill="#142666"/>
      </g>
      <g id="Group_7387" data-name="Group 7387" transform="translate(208.438 210.275)">
        <rect id="Rectangle_5298" data-name="Rectangle 5298" width="3.884" height="20.037" transform="translate(49.524 23.67) rotate(-90)" fill="#afdbfe"/>
        <rect id="Rectangle_5299" data-name="Rectangle 5299" width="3.454" height="17.922" transform="translate(52.294 19.786) rotate(-90)" fill="#fff"/>
        <rect id="Rectangle_5300" data-name="Rectangle 5300" width="3.454" height="17.922" transform="translate(49.53 16.332) rotate(-90)" fill="#70c0fd"/>
        <rect id="Rectangle_5301" data-name="Rectangle 5301" width="4.078" height="23.67" transform="translate(83.094)" fill="#afdbfe"/>
        <rect id="Rectangle_5302" data-name="Rectangle 5302" width="3.219" height="19.662" transform="translate(88.137 4.008)" fill="#70c0fd"/>
        <rect id="Rectangle_5303" data-name="Rectangle 5303" width="4.078" height="23.67" transform="translate(73.669)" fill="#afdbfe"/>
        <rect id="Rectangle_5304" data-name="Rectangle 5304" width="3.219" height="19.662" transform="translate(78.712 4.008)" fill="#70c0fd"/>
        <rect id="Rectangle_5305" data-name="Rectangle 5305" width="7.118" height="18.906" transform="translate(7.046 4.764)" fill="#afdbfe"/>
        <rect id="Rectangle_5306" data-name="Rectangle 5306" width="2.003" height="17.053" transform="translate(3.827 6.617)" fill="#fff"/>
        <rect id="Rectangle_5307" data-name="Rectangle 5307" width="3.183" height="19.775" transform="translate(0 3.895)" fill="#70c0fd"/>
        <rect id="Rectangle_5308" data-name="Rectangle 5308" width="3.183" height="19.775" transform="translate(42.887 3.895)" fill="#70c0fd"/>
        <rect id="Rectangle_5309" data-name="Rectangle 5309" width="6.474" height="17.053" transform="translate(19.959 6.617)" fill="#fff"/>
        <rect id="Rectangle_5310" data-name="Rectangle 5310" width="4.078" height="23.67" transform="translate(27.113)" fill="#afdbfe"/>
        <rect id="Rectangle_5311" data-name="Rectangle 5311" width="3.219" height="19.662" transform="translate(32.156 4.008)" fill="#70c0fd"/>
        <rect id="Rectangle_5312" data-name="Rectangle 5312" width="3.756" height="21.061" transform="translate(14.987 2.609)" fill="#70c0fd"/>
        <rect id="Rectangle_5313" data-name="Rectangle 5313" width="5.902" height="17.734" transform="translate(36.02 5.936)" fill="#fff"/>
      </g>
      <g id="Group_7388" data-name="Group 7388" transform="translate(114.189 210.262)">
        <rect id="Rectangle_5314" data-name="Rectangle 5314" width="2.003" height="17.053" transform="translate(3.827 6.617)" fill="#fff"/>
        <rect id="Rectangle_5315" data-name="Rectangle 5315" width="3.183" height="19.776" transform="translate(0 3.894)" fill="#a2cff6"/>
        <rect id="Rectangle_5316" data-name="Rectangle 5316" width="7.118" height="18.906" transform="translate(53.903 4.764)" fill="#afdbfe"/>
        <rect id="Rectangle_5317" data-name="Rectangle 5317" width="2.003" height="17.053" transform="translate(50.684 6.617)" fill="#fff"/>
        <rect id="Rectangle_5318" data-name="Rectangle 5318" width="3.183" height="19.776" transform="translate(46.857 3.894)" fill="#70c0fd"/>
        <rect id="Rectangle_5319" data-name="Rectangle 5319" width="4.078" height="23.67" transform="translate(30.404)" fill="#afdbfe"/>
        <rect id="Rectangle_5320" data-name="Rectangle 5320" width="3.884" height="20.037" transform="translate(6.921 23.67) rotate(-90)" fill="#b0c1ec"/>
        <rect id="Rectangle_5321" data-name="Rectangle 5321" width="3.454" height="17.922" transform="translate(9.691 19.786) rotate(-90)" fill="#fff"/>
        <rect id="Rectangle_5322" data-name="Rectangle 5322" width="3.454" height="17.922" transform="translate(6.927 16.332) rotate(-90)" fill="#a2cff6"/>
        <rect id="Rectangle_5323" data-name="Rectangle 5323" width="3.219" height="19.662" transform="translate(35.447 4.008)" fill="#70c0fd"/>
        <rect id="Rectangle_5324" data-name="Rectangle 5324" width="5.902" height="17.734" transform="translate(39.99 5.936)" fill="#fff"/>
      </g>
      <rect id="Rectangle_5325" data-name="Rectangle 5325" width="2.003" height="17.053" transform="translate(209.913 134.417)" fill="#fff"/>
      <rect id="Rectangle_5326" data-name="Rectangle 5326" width="3.183" height="19.776" transform="translate(206.086 131.694)" fill="#70c0fd"/>
      <rect id="Rectangle_5327" data-name="Rectangle 5327" width="7.118" height="18.906" transform="translate(259.989 132.564)" fill="#afdbfe"/>
      <rect id="Rectangle_5328" data-name="Rectangle 5328" width="2.003" height="17.053" transform="translate(256.77 134.417)" fill="#fff"/>
      <rect id="Rectangle_5329" data-name="Rectangle 5329" width="3.183" height="19.776" transform="translate(252.943 131.694)" fill="#70c0fd"/>
      <rect id="Rectangle_5330" data-name="Rectangle 5330" width="4.078" height="23.67" transform="translate(236.489 127.8)" fill="#afdbfe"/>
      <rect id="Rectangle_5331" data-name="Rectangle 5331" width="3.884" height="20.038" transform="translate(213.007 151.47) rotate(-90)" fill="#afdbfe"/>
      <rect id="Rectangle_5332" data-name="Rectangle 5332" width="3.454" height="17.922" transform="translate(215.776 147.586) rotate(-90)" fill="#fff"/>
      <rect id="Rectangle_5333" data-name="Rectangle 5333" width="3.454" height="17.922" transform="translate(213.013 144.132) rotate(-90)" fill="#70c0fd"/>
      <rect id="Rectangle_5334" data-name="Rectangle 5334" width="3.219" height="19.662" transform="translate(241.533 131.808)" fill="#70c0fd"/>
      <rect id="Rectangle_5335" data-name="Rectangle 5335" width="5.902" height="17.734" transform="translate(246.075 133.736)" fill="#fff"/>
      <rect id="Rectangle_5336" data-name="Rectangle 5336" width="2.003" height="17.053" transform="translate(354.392 132.273)" fill="#fff"/>
      <rect id="Rectangle_5337" data-name="Rectangle 5337" width="3.183" height="19.775" transform="translate(350.564 129.55)" fill="#70c0fd"/>
      <rect id="Rectangle_5338" data-name="Rectangle 5338" width="3.184" height="19.775" transform="translate(397.421 129.55)" fill="#70c0fd"/>
      <rect id="Rectangle_5339" data-name="Rectangle 5339" width="4.078" height="23.67" transform="translate(380.968 125.656)" fill="#afdbfe"/>
      <rect id="Rectangle_5340" data-name="Rectangle 5340" width="3.884" height="20.038" transform="translate(357.486 149.326) rotate(-90)" fill="#afdbfe"/>
      <rect id="Rectangle_5341" data-name="Rectangle 5341" width="3.454" height="17.922" transform="translate(360.255 145.442) rotate(-90)" fill="#fff"/>
      <rect id="Rectangle_5342" data-name="Rectangle 5342" width="3.454" height="17.922" transform="translate(357.491 141.988) rotate(-90)" fill="#a2cff6"/>
      <rect id="Rectangle_5343" data-name="Rectangle 5343" width="3.219" height="19.662" transform="translate(386.012 129.664)" fill="#70c0fd"/>
      <rect id="Rectangle_5344" data-name="Rectangle 5344" width="5.902" height="17.734" transform="translate(390.554 131.592)" fill="#fff"/>
      <rect id="Rectangle_5345" data-name="Rectangle 5345" width="4.078" height="23.67" transform="translate(305.458 127.8)" fill="#afdbfe"/>
      <rect id="Rectangle_5346" data-name="Rectangle 5346" width="3.219" height="19.662" transform="translate(310.501 131.808)" fill="#70c0fd"/>
      <rect id="Rectangle_5347" data-name="Rectangle 5347" width="5.902" height="17.734" transform="translate(315.044 133.736)" fill="#fff"/>
      <rect id="Rectangle_5348" data-name="Rectangle 5348" width="7.118" height="18.906" transform="translate(121.235 132.564)" fill="#afdbfe"/>
      <rect id="Rectangle_5349" data-name="Rectangle 5349" width="2.003" height="17.053" transform="translate(118.016 134.417)" fill="#fff"/>
      <rect id="Rectangle_5350" data-name="Rectangle 5350" width="3.183" height="19.776" transform="translate(114.189 131.694)" fill="#70c0fd"/>
      <rect id="Rectangle_5351" data-name="Rectangle 5351" width="7.118" height="18.906" transform="translate(164.801 132.564)" fill="#afdbfe"/>
      <rect id="Rectangle_5352" data-name="Rectangle 5352" width="2.003" height="17.053" transform="translate(161.582 134.417)" fill="#fff"/>
      <rect id="Rectangle_5353" data-name="Rectangle 5353" width="3.183" height="19.776" transform="translate(157.755 131.694)" fill="#70c0fd"/>
      <rect id="Rectangle_5354" data-name="Rectangle 5354" width="6.474" height="17.053" transform="translate(134.148 134.417)" fill="#fff"/>
      <rect id="Rectangle_5355" data-name="Rectangle 5355" width="4.078" height="23.67" transform="translate(141.301 127.8)" fill="#afdbfe"/>
      <rect id="Rectangle_5356" data-name="Rectangle 5356" width="3.219" height="19.662" transform="translate(146.345 131.808)" fill="#70c0fd"/>
      <rect id="Rectangle_5357" data-name="Rectangle 5357" width="3.756" height="21.061" transform="translate(129.176 130.409)" fill="#70c0fd"/>
      <rect id="Rectangle_5358" data-name="Rectangle 5358" width="7.118" height="18.906" transform="translate(275.966 132.564)" fill="#afdbfe"/>
      <rect id="Rectangle_5359" data-name="Rectangle 5359" width="2.003" height="17.053" transform="translate(272.747 134.417)" fill="#fff"/>
      <rect id="Rectangle_5360" data-name="Rectangle 5360" width="3.183" height="19.776" transform="translate(268.92 131.694)" fill="#70c0fd"/>
      <rect id="Rectangle_5361" data-name="Rectangle 5361" width="6.474" height="17.053" transform="translate(288.879 134.417)" fill="#fff"/>
      <rect id="Rectangle_5362" data-name="Rectangle 5362" width="4.078" height="23.67" transform="translate(296.032 127.8)" fill="#afdbfe"/>
      <rect id="Rectangle_5363" data-name="Rectangle 5363" width="3.219" height="19.662" transform="translate(301.076 131.808)" fill="#70c0fd"/>
      <rect id="Rectangle_5364" data-name="Rectangle 5364" width="3.756" height="21.061" transform="translate(283.907 130.409)" fill="#70c0fd"/>
      <rect id="Rectangle_5365" data-name="Rectangle 5365" width="4.078" height="23.67" transform="translate(363.443 91.787)" fill="#afdbfe"/>
      <rect id="Rectangle_5366" data-name="Rectangle 5366" width="3.219" height="19.662" transform="translate(368.487 95.795)" fill="#70c0fd"/>
      <rect id="Rectangle_5367" data-name="Rectangle 5367" width="5.902" height="17.734" transform="translate(373.029 97.724)" fill="#fff"/>
      <rect id="Rectangle_5368" data-name="Rectangle 5368" width="6.474" height="17.053" transform="translate(346.864 98.404)" fill="#fff"/>
      <rect id="Rectangle_5369" data-name="Rectangle 5369" width="4.078" height="23.67" transform="translate(354.018 91.787)" fill="#afdbfe"/>
      <rect id="Rectangle_5370" data-name="Rectangle 5370" width="3.219" height="19.662" transform="translate(359.062 95.795)" fill="#70c0fd"/>
      <rect id="Rectangle_5371" data-name="Rectangle 5371" width="3.756" height="21.061" transform="translate(341.893 94.396)" fill="#70c0fd"/>
      <rect id="Rectangle_5372" data-name="Rectangle 5372" width="7.118" height="18.906" transform="translate(290.02 173.802)" fill="#afdbfe"/>
      <rect id="Rectangle_5373" data-name="Rectangle 5373" width="2.003" height="17.053" transform="translate(286.801 175.655)" fill="#fff"/>
      <rect id="Rectangle_5374" data-name="Rectangle 5374" width="3.183" height="19.775" transform="translate(282.973 172.932)" fill="#70c0fd"/>
      <rect id="Rectangle_5375" data-name="Rectangle 5375" width="7.118" height="18.906" transform="translate(305.997 173.802)" fill="#afdbfe"/>
      <rect id="Rectangle_5376" data-name="Rectangle 5376" width="2.003" height="17.053" transform="translate(302.778 175.655)" fill="#fff"/>
      <rect id="Rectangle_5377" data-name="Rectangle 5377" width="3.183" height="19.775" transform="translate(298.951 172.932)" fill="#70c0fd"/>
      <rect id="Rectangle_5378" data-name="Rectangle 5378" width="3.756" height="21.061" transform="translate(313.938 171.647)" fill="#70c0fd"/>
      <rect id="Rectangle_5379" data-name="Rectangle 5379" width="5.902" height="17.734" transform="translate(150.887 133.736)" fill="#fff"/>
      <rect id="Rectangle_5380" data-name="Rectangle 5380" width="7.118" height="18.906" transform="translate(215.485 173.802)" fill="#afdbfe"/>
      <rect id="Rectangle_5381" data-name="Rectangle 5381" width="2.003" height="17.053" transform="translate(212.265 175.655)" fill="#fff"/>
      <rect id="Rectangle_5382" data-name="Rectangle 5382" width="3.183" height="19.775" transform="translate(208.438 172.932)" fill="#70c0fd"/>
      <rect id="Rectangle_5383" data-name="Rectangle 5383" width="7.118" height="18.906" transform="translate(259.051 173.802)" fill="#afdbfe"/>
      <rect id="Rectangle_5384" data-name="Rectangle 5384" width="2.003" height="17.053" transform="translate(255.831 175.655)" fill="#fff"/>
      <rect id="Rectangle_5385" data-name="Rectangle 5385" width="3.183" height="19.775" transform="translate(252.004 172.932)" fill="#70c0fd"/>
      <rect id="Rectangle_5386" data-name="Rectangle 5386" width="6.474" height="17.053" transform="translate(228.397 175.655)" fill="#fff"/>
      <rect id="Rectangle_5387" data-name="Rectangle 5387" width="4.078" height="23.67" transform="translate(235.551 169.038)" fill="#afdbfe"/>
      <rect id="Rectangle_5388" data-name="Rectangle 5388" width="3.219" height="19.662" transform="translate(240.594 173.046)" fill="#70c0fd"/>
      <rect id="Rectangle_5389" data-name="Rectangle 5389" width="3.756" height="21.061" transform="translate(223.425 171.647)" fill="#70c0fd"/>
      <rect id="Rectangle_5390" data-name="Rectangle 5390" width="5.902" height="17.734" transform="translate(245.137 174.974)" fill="#fff"/>
      <rect id="Rectangle_5391" data-name="Rectangle 5391" width="7.118" height="20.635" transform="translate(121.235 172.073)" fill="#fff"/>
      <rect id="Rectangle_5392" data-name="Rectangle 5392" width="2.003" height="17.053" transform="translate(118.016 175.655)" fill="#70c0fd"/>
      <rect id="Rectangle_5393" data-name="Rectangle 5393" width="3.183" height="19.775" transform="translate(114.189 172.932)" fill="#afdbfe"/>
      <rect id="Rectangle_5394" data-name="Rectangle 5394" width="2.003" height="17.053" transform="translate(161.582 175.655)" fill="#70c0fd"/>
      <rect id="Rectangle_5395" data-name="Rectangle 5395" width="3.183" height="21.91" transform="translate(157.755 170.797)" fill="#fff"/>
      <rect id="Rectangle_5396" data-name="Rectangle 5396" width="6.474" height="21.91" transform="translate(134.148 170.797)" fill="#70c0fd"/>
      <rect id="Rectangle_5397" data-name="Rectangle 5397" width="4.078" height="18.906" transform="translate(141.301 173.802)" fill="#fff"/>
      <rect id="Rectangle_5398" data-name="Rectangle 5398" width="3.219" height="24.886" transform="translate(146.345 167.822)" fill="#afdbfe"/>
      <rect id="Rectangle_5399" data-name="Rectangle 5399" width="3.756" height="18.403" transform="translate(129.176 174.305)" fill="#afdbfe"/>
      <rect id="Rectangle_5400" data-name="Rectangle 5400" width="5.902" height="21.061" transform="translate(150.887 171.647)" fill="#70c0fd"/>
      <path id="Path_23638" data-name="Path 23638" d="M.365.108,6.305,0,5.94,20.933,0,21.041Z" transform="matrix(0.942, -0.336, 0.336, 0.942, 162.302, 172.964)" fill="#fff"/>
      <path id="Path_23639" data-name="Path 23639" d="M.365.108,6.305,0,5.94,20.933,0,21.041Z" transform="matrix(0.942, -0.336, 0.336, 0.942, 265.517, 172.964)" fill="#fff"/>
      <path id="Path_23640" data-name="Path 23640" d="M.365.054,3.335,0,2.97,20.933,0,20.987Z" transform="matrix(0.942, -0.336, 0.336, 0.942, 271.776, 172.944)" fill="#70c0fd"/>
      <path id="Path_23641" data-name="Path 23641" d="M.365.054,3.335,0,2.97,20.933,0,20.987Z" transform="translate(377.831 95.604) rotate(-19.641)" fill="#70c0fd"/>
      <g id="Group_7411" data-name="Group 7411" transform="translate(286.631 161.758)">
        <path id="Path_23208" data-name="Path 23208" d="M2763.256,1908.291l-.745,6.325-4.012.329.062-5.866Z" transform="translate(-2687.428 -1794.418)" fill="#ffc0bb"/>
        <path id="Path_23209" data-name="Path 23209" d="M2201.438,1428.746h38.831l-4.242,31.04-32.048-5.52Z" transform="translate(-2196.341 -1374.957)" fill="#f9537f"/>
        <g id="Group_7392" data-name="Group 7392" transform="translate(64.526 119.568)">
          <path id="Path_23210" data-name="Path 23210" d="M2703.739,1989.771l10.962.078a.433.433,0,0,0,.43-.445l0-.334a.449.449,0,0,0-.437-.451l-10.962-.078a.433.433,0,0,0-.43.445l0,.334A.449.449,0,0,0,2703.739,1989.771Z" transform="translate(-2703.29 -1984.181)" fill="#3d3a55"/>
          <path id="Path_23211" data-name="Path 23211" d="M2714.494,1954.446l.42,3.424c.052.422-.173.8-.473.8l-10.424-.074a.777.777,0,0,1-.685-.508,1.526,1.526,0,0,1,.279-1.523c.922-1.356,3.985-1.667,5.475-2.82l4.856.035C2714.213,1953.782,2714.447,1954.064,2714.494,1954.446Z" transform="translate(-2703.232 -1953.746)" fill="#09083c"/>
          <g id="Group_7389" data-name="Group 7389" transform="translate(4.393 0.294)">
            <path id="Path_23212" data-name="Path 23212" d="M2742.54,1957.787h0a.233.233,0,0,0,.056-.278,2.052,2.052,0,0,0-2.157-1.391c-.075.013-.125.116-.111.223v0c.013.1.082.171.154.159a1.77,1.77,0,0,1,1.886,1.207C2742.4,1957.793,2742.477,1957.826,2742.54,1957.787Z" transform="translate(-2740.325 -1956.089)" fill="#fff"/>
          </g>
          <g id="Group_7390" data-name="Group 7390" transform="translate(3.314 0.726)">
            <path id="Path_23213" data-name="Path 23213" d="M2733.428,1961.24h0a.233.233,0,0,0,.057-.278,2.053,2.053,0,0,0-2.158-1.391c-.075.013-.125.116-.112.223v0c.013.1.082.171.154.159a1.77,1.77,0,0,1,1.886,1.206C2733.293,1961.246,2733.366,1961.279,2733.428,1961.24Z" transform="translate(-2731.214 -1959.542)" fill="#fff"/>
          </g>
          <g id="Group_7391" data-name="Group 7391" transform="translate(2.31 1.13)">
            <path id="Path_23214" data-name="Path 23214" d="M2724.955,1964.463h0a.234.234,0,0,0,.057-.278,2.052,2.052,0,0,0-2.158-1.391c-.075.013-.125.116-.112.222v0c.013.1.081.171.154.159a1.77,1.77,0,0,1,1.886,1.207C2724.82,1964.469,2724.893,1964.5,2724.955,1964.463Z" transform="translate(-2722.741 -1962.765)" fill="#fff"/>
          </g>
          <path id="Path_23215" data-name="Path 23215" d="M2774.378,1972.009c.8-2.758,2.211-3.053,2.985-2.984l.27,2.2c.052.422-.173.8-.473.8Z" transform="translate(-2765.952 -1967.104)" fill="#e87b50" opacity="0.3" style="mix-blend-mode: multiply;isolation: isolate"/>
        </g>
        <path id="Path_23216" data-name="Path 23216" d="M2918.794,1905.144l.34,6.633-4.083.03-.39-6.134Z" transform="translate(-2825.096 -1791.666)" fill="#ffc0bb"/>
        <g id="Group_7396" data-name="Group 7396" transform="translate(83.641 119.681)">
          <path id="Path_23217" data-name="Path 23217" d="M2865.146,1990.673l10.962.078a.433.433,0,0,0,.43-.445l0-.334a.449.449,0,0,0-.437-.451l-10.962-.078a.433.433,0,0,0-.43.445l0,.333A.45.45,0,0,0,2865.146,1990.673Z" transform="translate(-2864.698 -1985.083)" fill="#3d3a55"/>
          <path id="Path_23218" data-name="Path 23218" d="M2875.9,1955.348l.42,3.424c.052.422-.173.8-.473.8l-10.425-.074a.775.775,0,0,1-.684-.508,1.525,1.525,0,0,1,.279-1.523c.922-1.357,3.985-1.667,5.476-2.82l4.856.035C2875.622,1954.685,2875.856,1954.966,2875.9,1955.348Z" transform="translate(-2864.642 -1954.648)" fill="#09083c"/>
          <g id="Group_7393" data-name="Group 7393" transform="translate(4.393 0.294)">
            <path id="Path_23219" data-name="Path 23219" d="M2903.948,1958.692h0a.234.234,0,0,0,.057-.279,2.052,2.052,0,0,0-2.158-1.391c-.075.013-.125.116-.112.222v0c.013.1.081.171.154.159a1.77,1.77,0,0,1,1.886,1.206C2903.813,1958.7,2903.886,1958.731,2903.948,1958.692Z" transform="translate(-2901.733 -1956.994)" fill="#fff"/>
          </g>
          <g id="Group_7394" data-name="Group 7394" transform="translate(3.314 0.727)">
            <path id="Path_23220" data-name="Path 23220" d="M2894.837,1962.145h0a.234.234,0,0,0,.057-.278,2.052,2.052,0,0,0-2.158-1.391c-.075.013-.125.116-.112.222v0c.013.1.082.171.154.159a1.77,1.77,0,0,1,1.886,1.207C2894.7,1962.151,2894.775,1962.184,2894.837,1962.145Z" transform="translate(-2892.623 -1960.447)" fill="#fff"/>
          </g>
          <g id="Group_7395" data-name="Group 7395" transform="translate(2.31 1.13)">
            <path id="Path_23221" data-name="Path 23221" d="M2886.364,1965.365h0a.235.235,0,0,0,.057-.279,2.053,2.053,0,0,0-2.158-1.391c-.075.013-.125.116-.112.223v0c.013.1.082.171.155.159a1.771,1.771,0,0,1,1.886,1.207C2886.229,1965.371,2886.3,1965.4,2886.364,1965.365Z" transform="translate(-2884.149 -1963.667)" fill="#fff"/>
          </g>
          <path id="Path_23222" data-name="Path 23222" d="M2935.786,1972.912c.8-2.758,2.211-3.053,2.985-2.984l.27,2.2c.052.422-.173.8-.473.8Z" transform="translate(-2927.36 -1968.006)" fill="#e87b50" opacity="0.3" style="mix-blend-mode: multiply;isolation: isolate"/>
        </g>
        <path id="Rectangle_5405" data-name="Rectangle 5405" d="M1.2,0H132.529a1.2,1.2,0,0,1,1.2,1.2v0a1.2,1.2,0,0,1-1.2,1.2H1.2A1.2,1.2,0,0,1,0,1.2v0A1.2,1.2,0,0,1,1.2,0Z" transform="translate(11.956 101.523)" fill="#3d3a55"/>
        <path id="Path_23223" data-name="Path 23223" d="M2536.495,1262.365c-.5.037-86.484.012-114.732,0a9.138,9.138,0,0,0-8.877,9.383v38.3h106.3l16.489-17.43Z" transform="translate(-2382.747 -1229.423)" fill="#ff5b7e"/>
        <path id="Rectangle_5406" data-name="Rectangle 5406" d="M4.351,0h0A4.351,4.351,0,0,1,8.7,4.351V31.643a4.351,4.351,0,0,1-4.351,4.351h0A4.351,4.351,0,0,1,0,31.643V4.351A4.351,4.351,0,0,1,4.351,0Z" transform="translate(158.1 68.936) rotate(180)" fill="#e03268"/>
        <rect id="Rectangle_5407" data-name="Rectangle 5407" width="109.219" height="22.976" transform="translate(116.857 97.882) rotate(180)" fill="#e03268"/>
        <path id="Path_23224" data-name="Path 23224" d="M2743.477,1528.494s-20.14.077-23.248,4.348-5.47,33.118,0,45.735c0,0,7.086.263,8.7-.789,0,0-.5-21.29-.249-26.942s3.978-6.44,4.475-6.965S2743.477,1528.494,2743.477,1528.494Z" transform="translate(-2650.802 -1462.208)" fill="#2b1c35"/>
        <path id="Path_23225" data-name="Path 23225" d="M3161.352,1167.321l.764,6.554-6.146-.222.177-7.5Z" transform="translate(-3037.826 -1145.265)" fill="#ffc0bb"/>
        <path id="Path_23226" data-name="Path 23226" d="M3156.775,1169.6l.081-3.453,5.281,1.79.148,1.294A8.719,8.719,0,0,1,3156.775,1169.6Z" transform="translate(-3038.536 -1145.265)" fill="#fc8d84" opacity="0.6"/>
        <path id="Path_23227" data-name="Path 23227" d="M3094.9,1085.947l.8,4.47.768.241-.192-5.672Z" transform="translate(-2983.986 -1074.269)" fill="#fee4cb"/>
        <path id="Path_23228" data-name="Path 23228" d="M3090.206,1113.8a1.794,1.794,0,0,1-.488,2.369,1.617,1.617,0,0,1-2.082-1.02,1.794,1.794,0,0,1,.488-2.369A1.616,1.616,0,0,1,3090.206,1113.8Z" transform="translate(-2977.385 -1098.466)" fill="#f99893"/>
        <path id="Path_23229" data-name="Path 23229" d="M3101.134,1056.962a7.963,7.963,0,0,1-.667-1.275,15.568,15.568,0,0,1-1.024-3.65c-.04-.245-.093-.487-.151-.728a8.53,8.53,0,0,1-.157-3.111,7.919,7.919,0,0,1,6.436-6.868,7.764,7.764,0,0,1,8.788,7.392,1.582,1.582,0,0,1,1.478-.239,2.233,2.233,0,0,1,.93,2.883,2.06,2.06,0,0,1-2.46,1.593,1.436,1.436,0,0,1-.358-.2c-.105,3.978-2.957,7.267-6.637,7.492a6.636,6.636,0,0,1-4.793-1.678,3.344,3.344,0,0,1-.276-.235A6.888,6.888,0,0,1,3101.134,1056.962Z" transform="translate(-2987.656 -1036.001)" fill="#ffc0bb"/>
        <path id="Path_23230" data-name="Path 23230" d="M3170.727,1105.651a.682.682,0,0,0,.706.664.694.694,0,0,0,.629-.746.682.682,0,0,0-.706-.664A.694.694,0,0,0,3170.727,1105.651Z" transform="translate(-3050.834 -1091.691)" fill="#333"/>
        <path id="Path_23231" data-name="Path 23231" d="M3122.506,1111.616a.682.682,0,0,0,.706.664.694.694,0,0,0,.629-.745.682.682,0,0,0-.706-.664A.694.694,0,0,0,3122.506,1111.616Z" transform="translate(-3008.324 -1096.908)" fill="#333"/>
        <path id="Path_23232" data-name="Path 23232" d="M3163.294,1092.739a6.066,6.066,0,0,1,.934-.392,3.132,3.132,0,0,1,.925-.151,2.906,2.906,0,0,1,.922.135l.117.031c.039.011.076.03.115.043l.234.087c.157.061.307.145.48.2a3.041,3.041,0,0,0-.356-.418,2.4,2.4,0,0,0-.447-.321,2.085,2.085,0,0,0-1.072-.273,2.222,2.222,0,0,0-1.853,1.055Z" transform="translate(-3044.283 -1080.127)" fill="#07085b"/>
        <path id="Path_23233" data-name="Path 23233" d="M3113.517,1097.965a2.082,2.082,0,0,0-.923-.564,2.158,2.158,0,0,0-1.1-.044,2.133,2.133,0,0,0-.991.511,2.516,2.516,0,0,0-.372.415,3.187,3.187,0,0,0-.262.49c.158-.1.286-.213.427-.308l.211-.139c.036-.022.067-.049.1-.068l.108-.057a2.967,2.967,0,0,1,.873-.342,3.132,3.132,0,0,1,.934-.063A5.948,5.948,0,0,1,3113.517,1097.965Z" transform="translate(-2997.184 -1085.045)" fill="#07085b"/>
        <path id="Path_23234" data-name="Path 23234" d="M3076.085,1005.808s-2.289.2.022-1.974,8.66-4.909,12.907-2.818c0,0,.742-1.9,1.959-1.52s-.7,1.763-.7,1.763,1.526-.132,2.029.635c.372.567-.563.642-1.076.642.877.111,3.8,1.737,2.454,8.924-.6-.107-5.406-4.273-5.406-4.273s-6.284,4.434-5.547,2.074c0,0-7.5,4.511-6.558.08C3076.17,1009.34,3073.075,1009.743,3076.085,1005.808Z" transform="translate(-2966.242 -999.445)" fill="#07085b"/>
        <path id="Path_23235" data-name="Path 23235" d="M3144.534,1101.082a5.67,5.67,0,0,1,.31,1.487,4.464,4.464,0,0,1,0,.781,2.07,2.07,0,0,1-.232.8l-.067.1-.061.083a.777.777,0,0,0-.08.114.583.583,0,0,0-.085.246.706.706,0,0,0,.175.519,1.946,1.946,0,0,0,1.185.584,1.56,1.56,0,0,1-1.437-.316,1.061,1.061,0,0,1-.356-.816.863.863,0,0,1,.039-.24.948.948,0,0,1,.089-.219,1.219,1.219,0,0,1,.127-.188.668.668,0,0,0,.045-.067l.038-.054a1.957,1.957,0,0,0,.192-.612,6.774,6.774,0,0,0,.076-.712C3144.514,1102.086,3144.519,1101.59,3144.534,1101.082Z" transform="translate(-3027.169 -1088.348)" fill="#f99893"/>
        <path id="Path_23236" data-name="Path 23236" d="M3188.818,1043.56s2.656,4.437,2.716,7.061c0,0,1.122-2.351,2.972-2.411,0,0,.6-4.418-.529-7.181l-4.178.947Z" transform="translate(-3066.784 -1035.819)" fill="#07085b"/>
        <path id="Path_23237" data-name="Path 23237" d="M3014.416,1203.731s1.865,3.088,8.081,0c0,0,11.251-3.286,12.122,10.842l.435,13.142s-5.813.021-8.8.138l-.093,2.753-16.97,14.588s-10.07-.92-12.122-1.971c0,0,3.605-7.557,4.165-9.265s.963-18.2,1.554-19.91S3005.118,1203.965,3014.416,1203.731Z" transform="translate(-2897.748 -1177.846)" fill="#feb546"/>
        <path id="Path_23238" data-name="Path 23238" d="M3057.987,1284.973a7.761,7.761,0,0,0-.562,1.236c-.085.21-.151.428-.227.642l-.194.653a21.065,21.065,0,0,0-.554,2.674c-.154.9-.222,1.812-.3,2.724-.03.456-.048.914-.073,1.372s-.02.917-.04,1.376c-.028-.458-.042-.918-.063-1.378,0-.46,0-.92.014-1.38a25.769,25.769,0,0,1,.251-2.75,18.518,18.518,0,0,1,.608-2.689A9.312,9.312,0,0,1,3057.987,1284.973Z" transform="translate(-2949.675 -1249.198)" fill="#452b52"/>
        <g id="Group_7397" data-name="Group 7397" transform="translate(89.088 41.623)">
          <path id="Path_23239" data-name="Path 23239" d="M2925.827,1335.589c-.152.006-6.306-3.937-6.306-3.937l-1.15.258.408.319-.687-.183-1.119.183s3.7,4.614,3.761,4.746a15.514,15.514,0,0,0,1.8.854C2922.66,1337.895,2925.827,1335.589,2925.827,1335.589Z" transform="translate(-2916.221 -1331.652)" fill="#daeef7"/>
          <path id="Path_23240" data-name="Path 23240" d="M2999.585,1332.441l-.56-.37-.256.185v-.346l-.349-.258-8.951,3.745s2.867,1.922,2.96,1.848,5.2-1.059,5.292-1.207S2999.585,1332.441,2999.585,1332.441Z" transform="translate(-2980.131 -1331.652)" fill="#daeef7"/>
          <path id="Path_23241" data-name="Path 23241" d="M2929.942,1334.069l-10.145,3.474-8.181-3.766a.713.713,0,0,0-.981.765l1.558,14.741a.747.747,0,0,0,.372.576l7.856,4.378,7.115-2.785.183-.285.922-.148,2.984-1.168a.671.671,0,0,0,.41-.683l-1.173-14.455A.708.708,0,0,0,2929.942,1334.069Z" transform="translate(-2910.63 -1333.456)" fill="#e03268"/>
          <path id="Path_23242" data-name="Path 23242" d="M2998.177,1336.291a.708.708,0,0,1,.919.644l1.172,14.436a.7.7,0,0,1-.426.709l-2.966,1.161-.922.148-.183.284-6.487,2.458-1.25-16.368Z" transform="translate(-2978.865 -1335.678)" fill="#e03268" opacity="0.5" style="mix-blend-mode: multiply;isolation: isolate"/>
          <path id="Path_23243" data-name="Path 23243" d="M2928.153,1357.915l-6.327-2.925.2,3.039,6.2,3.039Z" transform="translate(-2920.5 -1352.066)" fill="#c1215b"/>
        </g>
        <path id="Path_23244" data-name="Path 23244" d="M3047.531,1439.4c.027-.1.083-.237-.042-.337l-.1-.073a3.148,3.148,0,0,1-1.1-1.361,2.482,2.482,0,0,0-.19-.42c-.049-.061-.061.025-.061.025l.112,1.378-1.512.583s-2.649.441-3.954-.167c0,0-.684-.509-.466.411a.548.548,0,0,0,.137.244c-.1.063-.2.224-.013.844a.545.545,0,0,0,.027.071,1.056,1.056,0,0,0,.375,1.078,1.111,1.111,0,0,0,.787.781,27.929,27.929,0,0,0,3.2.565,6.046,6.046,0,0,0,1.815.129l.36.061a13.872,13.872,0,0,0,1.027-2.106C3048.028,1440.505,3047.37,1439.987,3047.531,1439.4Z" transform="translate(-2935.742 -1382.342)" fill="#ffc0bb"/>
        <path id="Path_23245" data-name="Path 23245" d="M3094.9,1404.282s9.18-.495,11.744-1.431a26.208,26.208,0,0,0,4.927-2.53v-2.759l8.71-.138s1.1,8.433-1.375,9.419-19.451,2.563-24.953,1.528Z" transform="translate(-2983.151 -1347.56)" fill="#ffc0bb"/>
        <g id="Group_7398" data-name="Group 7398" transform="translate(104.61 57.342)">
          <path id="Path_23246" data-name="Path 23246" d="M3041.691,1464.022a2.062,2.062,0,0,0,.572.465,3.021,3.021,0,0,0,.675.282,3.445,3.445,0,0,0,.717.115c.12.009.241,0,.361,0s.24-.021.359-.036c-.24-.012-.478-.021-.714-.052a5.162,5.162,0,0,1-.7-.137,4.218,4.218,0,0,1-.666-.25A2.884,2.884,0,0,1,3041.691,1464.022Z" transform="translate(-3041.691 -1463.156)" fill="#f99893"/>
          <path id="Path_23247" data-name="Path 23247" d="M3044.952,1473.035a2.031,2.031,0,0,0,.6.416,2.989,2.989,0,0,0,.694.225,3.4,3.4,0,0,0,.723.055c.121,0,.24-.018.36-.027s.238-.041.355-.066c-.24.008-.478.019-.715.007a5.087,5.087,0,0,1-.7-.079,4.122,4.122,0,0,1-.682-.194A2.85,2.85,0,0,1,3044.952,1473.035Z" transform="translate(-3044.566 -1471.039)" fill="#f99893"/>
          <path id="Path_23248" data-name="Path 23248" d="M3041.691,1457.107a2.055,2.055,0,0,0,.572.465,3,3,0,0,0,.675.282,3.412,3.412,0,0,0,.717.115c.12.009.241,0,.361,0s.24-.021.359-.036c-.24-.012-.478-.021-.714-.052a5.107,5.107,0,0,1-.7-.137,4.146,4.146,0,0,1-.666-.25A2.88,2.88,0,0,1,3041.691,1457.107Z" transform="translate(-3041.691 -1457.107)" fill="#f99893"/>
        </g>
        <path id="Path_23249" data-name="Path 23249" d="M3244.689,1326.372c-.782,0-1.564,0-2.346-.014l-2.346-.035q-1.117-.023-2.234-.062c.077-.808.137-1.619.174-2.429.036-.851.071-1.7.067-2.553s-.009-1.7-.033-2.553-.068-1.7-.136-2.548c.02.85.035,1.7.032,2.55s0,1.7-.025,2.548-.049,1.7-.1,2.545-.116,1.692-.2,2.535l-.012.12.112,0q1.176.033,2.349.045c.782.008,1.566.016,2.348,0,1.565-.015,3.131-.06,4.693-.164C3246.254,1326.367,3245.471,1326.379,3244.689,1326.372Z" transform="translate(-3109.73 -1276.493)" fill="#452b52"/>
        <path id="Path_23250" data-name="Path 23250" d="M2910.007,1374.773c-.105-.232-1.952.1-1.972-.035s1.819-1.113,1.771-1.345c-.053-.259-2,.436-2.127.341s1.6-1.6,1.274-1.8c-.248-.145-1.422.711-1.976,1.133a.614.614,0,0,0-.225.6l.749,4.693a.784.784,0,0,0,.808.68l.067,0-.106-2.544c.558-.02,1.6-.088,1.509-.3-.083-.2-.98-.351-1.539-.425l0-.047C2908.248,1375.624,2910.1,1374.981,2910.007,1374.773Z" transform="translate(-2818.115 -1325.253)" fill="#ffc0bb"/>
        <g id="Group_7400" data-name="Group 7400" transform="translate(0 53.789)">
          <g id="Group_7399" data-name="Group 7399">
            <path id="Path_23251" data-name="Path 23251" d="M2224.6,1465.5h-48.12a8.124,8.124,0,0,1-7.89-8.341v-23.027a5.249,5.249,0,0,0-5.1-5.388h0a5.249,5.249,0,0,0-5.1,5.388v23.621c0,10.342,7.931,18.725,17.713,18.725h48.7A107.93,107.93,0,0,1,2224.6,1465.5Z" transform="translate(-2158.399 -1428.746)" fill="#ff85a5"/>
            <path id="Path_23252" data-name="Path 23252" d="M2815.426,1722.1c-.041,2.745-.011,6.866.043,10.978h24.5V1722.1Z" transform="translate(-2737.596 -1685.347)" fill="#ff85a5"/>
          </g>
        </g>
        <path id="Path_23253" data-name="Path 23253" d="M3068.391,1429.275l36.242.275a6.529,6.529,0,0,1,6.34,6.7v23.631c0,9.422-7.225,17.059-16.138,17.059h-37.569s7.459-13.749,7.459-14.143S3068.391,1429.275,3068.391,1429.275Z" transform="translate(-2950.813 -1375.42)" fill="#f9537f"/>
        <g id="Group_7401" data-name="Group 7401" transform="translate(94.278 53.789)">
          <path id="Path_23254" data-name="Path 23254" d="M2978.215,1428.746h0a5.249,5.249,0,0,0-5.1,5.388v23.027c0,.159-.005.316-.013.473v0h0a8.094,8.094,0,0,1-7.876,7.864h-10.771c.32,3.278.72,7.187,1.115,10.978H2965.6c9.783,0,17.714-8.383,17.714-18.725v-23.621A5.249,5.249,0,0,0,2978.215,1428.746Z" transform="translate(-2954.456 -1428.746)" fill="#ff85a5"/>
        </g>
        <path id="Path_23255" data-name="Path 23255" d="M2849.134,1537.522c-.181-1.776-.417-4.084-.673-6.7h0c-.456-5.128-.929-8.5-.421-8.14,1.749-.67,12.595-.108,19.068.276h0c.04-1.134,0-18.622.013-19.535-42.521,3.744-33.152,11.446-29.165,38.036h0l.067.341h0c1.73,8.793,3.362,16.03,3.362,16.03s6.216.263,9.821-.657C2851.213,1557.218,2850.088,1546.832,2849.134,1537.522Z" transform="translate(-2754.183 -1440.282)" fill="#3a2645"/>
        <g id="Group_7405" data-name="Group 7405" transform="translate(14.744 6.491)">
          <path id="Path_23256" data-name="Path 23256" d="M2354.989,1957.975l5.121-3.34,4.423,2.825-1.545,1.163-5.364.8s-2.094-.283-2.185-.349A7.743,7.743,0,0,1,2354.989,1957.975Z" transform="translate(-2346.451 -1841.447)" fill="#f7aeaa"/>
          <path id="Path_23257" data-name="Path 23257" d="M2342.85,1977.7l-1.3.882a.759.759,0,0,0,.376,1.388l9.826.049a.646.646,0,0,0,.63-.66l.01-2.174C2345.841,1979.35,2343.583,1978.669,2342.85,1977.7Z" transform="translate(-2334.312 -1861.167)" fill="#ff6088"/>
          <path id="Path_23258" data-name="Path 23258" d="M2402.169,1957.975l5.121-3.34,4.424,2.825-1.545,1.163-5.364.8s-2.094-.283-2.186-.349A7.747,7.747,0,0,1,2402.169,1957.975Z" transform="translate(-2388.043 -1841.447)" fill="#ffc0bb"/>
          <path id="Path_23259" data-name="Path 23259" d="M2390.03,1977.7l-1.3.882a.76.76,0,0,0,.376,1.388l9.826.049a.646.646,0,0,0,.631-.66l.01-2.174C2393.021,1979.35,2390.764,1978.669,2390.03,1977.7Z" transform="translate(-2375.904 -1861.167)" fill="#ff6088"/>
          <path id="Path_23260" data-name="Path 23260" d="M2568.294,1108.1c2.64-1.957,1.239-2.742,2.79-4.443a4.274,4.274,0,0,0,.023-6.585c-1.539-1.714-.132-2.488-2.758-4.466s-5.417,2.818-5.417,2.818l-2.88,3.766.538,1.951-1.128,3.8S2565.653,1110.055,2568.294,1108.1Z" transform="translate(-2526.707 -1087.004)" fill="#07085b"/>
          <path id="Path_23261" data-name="Path 23261" d="M2339.157,1502.595s-10.94,4.337-11.562,7.754,3.854,46.786,5.781,48.889c0,0,3.987,1.183,7.122-.657s1.643-16.165,1.643-16.559,3.512-21.422,3.5-22.211,5.7-10.251,7.07-11.565,3.575-7.721,3.575-7.721Z" transform="translate(-2322.249 -1444.234)" fill="#030321"/>
          <path id="Path_23262" data-name="Path 23262" d="M2446.629,1491.1s.851,11.343-2.145,15.384-19.954,4.13-19.954,4.13l-3.37,41.388a69.292,69.292,0,0,1-7.4-.885s-2.381-45.628.7-48.684,17.063-10.152,17.063-10.152Z" transform="translate(-2397.491 -1435.994)" fill="#09083c"/>
          <path id="Path_23263" data-name="Path 23263" d="M2485.073,1055.056s-4.555-1.838-7.245,2.213a8.264,8.264,0,0,0,.878,10.055l1.015,1.1s4.145-4.715,4.19-4.943S2485.073,1055.056,2485.073,1055.056Z" transform="translate(-2453.587 -1054.215)" fill="#07085b"/>
          <path id="Path_23264" data-name="Path 23264" d="M2522.612,1235.77s6.413-1.247,9.362-1.142-1.787,8.211-1.787,8.211l-4.816.113s-2.953-3.486-2.759-3.892a15.931,15.931,0,0,0-.009-3.065Z" transform="translate(-2494.214 -1211.646)" fill="#ffc0bb"/>
          <g id="Group_7403" data-name="Group 7403" transform="translate(23.135 3.907)">
            <path id="Path_23265" data-name="Path 23265" d="M2546.569,1189.73l1.15,5.583s-1.78,3.04-6.13,1.165a5.282,5.282,0,0,0,.162-3.439C2541.282,1190.609,2546.569,1189.73,2546.569,1189.73Z" transform="translate(-2534.086 -1176.286)" fill="#ffc0bb"/>
            <path id="Path_23266" data-name="Path 23266" d="M2547.557,1189.73l.541,2.609c-.652,1.791-2.3,2.878-5.22,2.951a7.765,7.765,0,0,0-.138-2.25C2542.27,1190.609,2547.557,1189.73,2547.557,1189.73Z" transform="translate(-2535.075 -1176.286)" fill="#fc8d84" opacity="0.6"/>
            <g id="Group_7402" data-name="Group 7402">
              <path id="Path_23267" data-name="Path 23267" d="M2480.846,1140.169a1.633,1.633,0,0,1-.753,2.085c-.694.235-1.481-.318-1.759-1.235a1.634,1.634,0,0,1,.753-2.085C2479.781,1138.7,2480.569,1139.252,2480.846,1140.169Z" transform="translate(-2478.237 -1131.807)" fill="#f99893"/>
              <path id="Path_23268" data-name="Path 23268" d="M2491.9,1096.013a7.512,7.512,0,0,1-.439-1.258,14.5,14.5,0,0,1-.453-3.473c0-.229-.021-.457-.042-.685a7.85,7.85,0,0,1,.264-2.856,7.124,7.124,0,0,1,6.748-5.307,7.292,7.292,0,0,1,7.021,8.02,1.449,1.449,0,0,1,1.375,0,2.081,2.081,0,0,1,.469,2.761,1.862,1.862,0,0,1-2.446,1.089,1.366,1.366,0,0,1-.3-.236,6.69,6.69,0,0,1-7.013,5.846,6.212,6.212,0,0,1-4.137-2.231,3.162,3.162,0,0,1-.22-.255A6.507,6.507,0,0,1,2491.9,1096.013Z" transform="translate(-2489.428 -1082.434)" fill="#ffc0bb"/>
              <path id="Path_23269" data-name="Path 23269" d="M2530.246,1140.25a4.809,4.809,0,0,1,.1,1.273,3.741,3.741,0,0,1-.086.649,1.709,1.709,0,0,1-.278.641l-.066.073-.059.062a.677.677,0,0,0-.079.085.5.5,0,0,0-.1.195.6.6,0,0,0,.091.452,1.659,1.659,0,0,0,.923.625,1.322,1.322,0,0,1-1.161-.432.9.9,0,0,1-.209-.72.729.729,0,0,1,.057-.194.821.821,0,0,1,.1-.172,1.012,1.012,0,0,1,.125-.142.6.6,0,0,0,.045-.05l.037-.041a1.615,1.615,0,0,0,.224-.486,5.564,5.564,0,0,0,.138-.583C2530.125,1141.083,2530.18,1140.67,2530.246,1140.25Z" transform="translate(-2523.267 -1133.006)" fill="#f99893"/>
              <path id="Path_23270" data-name="Path 23270" d="M2556.045,1143.355a.641.641,0,0,0,.554.708.625.625,0,0,0,.67-.586.641.641,0,0,0-.554-.708A.625.625,0,0,0,2556.045,1143.355Z" transform="translate(-2546.828 -1135.207)" fill="#333"/>
              <path id="Path_23271" data-name="Path 23271" d="M2511.384,1142.093a.641.641,0,0,0,.555.708.625.625,0,0,0,.669-.586.641.641,0,0,0-.554-.708A.625.625,0,0,0,2511.384,1142.093Z" transform="translate(-2507.456 -1134.103)" fill="#333"/>
              <path id="Path_23272" data-name="Path 23272" d="M2528.247,1184.537a1.967,1.967,0,0,0-1.721.052,1.459,1.459,0,0,0-1.588-.2,1.75,1.75,0,0,0,1.658,1.5A1.555,1.555,0,0,0,2528.247,1184.537Z" transform="translate(-2519.407 -1171.462)" fill="#f99893" opacity="0.3" style="mix-blend-mode: multiply;isolation: isolate"/>
              <path id="Path_23273" data-name="Path 23273" d="M2525.095,1181.99a4.4,4.4,0,0,1-.557.329,4.3,4.3,0,0,1-.587.251,3.62,3.62,0,0,1-1.232.207,3.092,3.092,0,0,1-1.214-.279,4.543,4.543,0,0,1-1.068-.718,3.973,3.973,0,0,0,.468.468,3.511,3.511,0,0,0,.548.369,2.915,2.915,0,0,0,.613.241,3.049,3.049,0,0,0,.65.09,3.2,3.2,0,0,0,1.278-.255A3.645,3.645,0,0,0,2525.095,1181.99Z" transform="translate(-2515.439 -1169.332)" fill="#f99893"/>
              <path id="Path_23274" data-name="Path 23274" d="M2551.255,1131.095a6,6,0,0,1,.92-.093,2.953,2.953,0,0,1,.848.107,2.8,2.8,0,0,1,.783.35c.134.067.245.174.378.258s.242.2.386.3a2.8,2.8,0,0,0-.213-.47,2.2,2.2,0,0,0-.322-.406,1.987,1.987,0,0,0-1.911-.534A1.861,1.861,0,0,0,2551.255,1131.095Z" transform="translate(-2542.607 -1124.514)" fill="#07085b"/>
              <path id="Path_23275" data-name="Path 23275" d="M2503.105,1129.538a1.888,1.888,0,0,0-.828-.567,1.97,1.97,0,0,0-1.016-.083,1.939,1.939,0,0,0-.931.442,2.179,2.179,0,0,0-.353.375,2.778,2.778,0,0,0-.25.449c.151-.081.274-.181.409-.262s.259-.167.4-.222a2.779,2.779,0,0,1,.808-.277,2.953,2.953,0,0,1,.854-.03A6.009,6.009,0,0,1,2503.105,1129.538Z" transform="translate(-2497.182 -1123.039)" fill="#07085b"/>
            </g>
          </g>
          <path id="Path_23276" data-name="Path 23276" d="M2444.622,1341.441s-.584,15.372-2.219,17.78l8.994-2.161v-16.73Z" transform="translate(-2423.512 -1304.11)" fill="#ffc0bb"/>
          <path id="Path_23277" data-name="Path 23277" d="M2493.5,1333.628a42.062,42.062,0,0,1,1.479,5.924,25.692,25.692,0,0,1-1.048,11.609c-1.4,4.074,10.044,2.593,10.278,2.469s10.045-4.136,10.045-4.136l1.869-5.741v-10.125l-.526-4.63Z" transform="translate(-2468.554 -1294.198)" fill="#02ccc0"/>
          <path id="Path_23278" data-name="Path 23278" d="M2531.921,1329l-7.2,2.593s1.246,12.183.856,13.911c-.333,1.478-5.557,4.415-8.866,6.06a3.2,3.2,0,0,1-1.707.327c-1.885-.164-5.228-.472-5.752-.51-.823-.06-3.089,0-3.162.307-.067.284,1.77-.029,2.961.231.167.036.078.273.039.275a15.288,15.288,0,0,0-2.795.287c-.656.231,1.665.048,2.919.292.088.017.158.281.094.347-.15.156-.7.292-2.194.454-2.5.27-.054.6-.054.6s.225-.068,2.372-.379c.079-.011.167.224.048.335a3.653,3.653,0,0,1-1.333.773c-.8.251-.219.472-.219.472a14.739,14.739,0,0,1,2.377-.547c.639-.051,3.651.209,4.887.284l.094-.224c1.675-.052,15.038-.418,16.324-9.174A67.619,67.619,0,0,0,2531.921,1329Z" transform="translate(-2479.567 -1294.198)" fill="#ffc0bb"/>
          <g id="Group_7404" data-name="Group 7404" transform="translate(0 43.525)">
            <path id="Path_23279" data-name="Path 23279" d="M2282.894,1398.631h22.953l6.508,16.792h11.057a.576.576,0,0,1,.56.592h0a.576.576,0,0,1-.56.592h-32.89Z" transform="translate(-2282.894 -1398.631)" fill="#07085b"/>
            <path id="Path_23280" data-name="Path 23280" d="M2378.787,1464.341a1.192,1.192,0,0,0,1.318,1.069,1.255,1.255,0,0,0,.827-1.523,1.192,1.192,0,0,0-1.318-1.069A1.255,1.255,0,0,0,2378.787,1464.341Z" transform="translate(-2367.406 -1454.758)" fill="#daeef7"/>
          </g>
          <path id="Path_23281" data-name="Path 23281" d="M2447.13,1235.629s4.36,5.379,9.362-1.142c0,0,5.465-.471,9.495,2.554s6.443,9.82,6.443,9.82-7.3,3.889-9.111,4.075h-20.265a17.232,17.232,0,0,1-6.073-1.852S2437.493,1238.284,2447.13,1235.629Z" transform="translate(-2418.731 -1211.505)" fill="#02ccc0"/>
          <path id="Path_23282" data-name="Path 23282" d="M2631.974,1301.109c.209.66.393,1.328.58,1.995s.358,1.339.525,2.012.323,1.35.462,2.032.274,1.364.378,2.056l-.154-.164a3.664,3.664,0,0,0,.669-.005c.23-.016.461-.052.69-.087a13.615,13.615,0,0,0,1.372-.313l.34-.1.337-.109c.224-.075.45-.143.673-.227l.668-.244.66-.27c.443-.175.874-.381,1.311-.571l1.292-.622,1.281-.655c.421-.23.844-.46,1.27-.682-.4.268-.807.531-1.214.791s-.824.5-1.241.746-.845.465-1.271.69l-.648.318c-.216.107-.432.214-.655.306a19.847,19.847,0,0,1-2.706,1.008l-.348.1-.352.084c-.233.062-.473.1-.71.144s-.479.07-.723.085a3.841,3.841,0,0,1-.753,0l-.133-.016-.022-.148c-.2-1.365-.459-2.725-.732-4.082l-.417-2.036Z" transform="translate(-2590.632 -1269.803)" fill="#fff"/>
          <path id="Path_23283" data-name="Path 23283" d="M2487.957,1288.637q-.428,1.185-.777,2.383a21.888,21.888,0,0,0-.563,2.426,12.239,12.239,0,0,0-.156,1.231,9.509,9.509,0,0,0-.029,1.237,34.224,34.224,0,0,0,1.525,5.473,25.739,25.739,0,0,1-1.824-5.448,9.392,9.392,0,0,1,.106-2.564c.076-.42.164-.837.274-1.247s.237-.814.384-1.21A13.34,13.34,0,0,1,2487.957,1288.637Z" transform="translate(-2462.022 -1258.894)" fill="#fff"/>
          <path id="Path_23284" data-name="Path 23284" d="M2533.106,1063.176s-7.26-2.719-10.29-8.46c0,0,.2-5.037,6.874-2.968C2534.313,1053.182,2535.927,1059.8,2533.106,1063.176Z" transform="translate(-2494.402 -1051.249)" fill="#07085b"/>
        </g>
        <path id="Path_23285" data-name="Path 23285" d="M3158.083,1148.912c-.543.094-1.081.156-1.617.236a14.633,14.633,0,0,0-1.6.306,4.02,4.02,0,0,1,1.57-.525A5.868,5.868,0,0,1,3158.083,1148.912Z" transform="translate(-3036.854 -1130.14)" fill="#f99893"/>
        <g id="Group_7406" data-name="Group 7406" transform="translate(12.337 102.935)">
          <path id="Path_23286" data-name="Path 23286" d="M2264.734,1843.424h-2.165l5.4-22.428,2.033.547Z" transform="translate(-2262.569 -1820.996)" fill="#3d3a55"/>
        </g>
        <g id="Group_7409" data-name="Group 7409" transform="translate(137.396 102.921)">
          <g id="Group_7408" data-name="Group 7408">
            <g id="Group_7407" data-name="Group 7407">
              <path id="Path_23287" data-name="Path 23287" d="M3323.794,1843.311h2.165l-5.4-22.428-2.033.547Z" transform="translate(-3318.526 -1820.883)" fill="#3d3a55"/>
            </g>
          </g>
        </g>
        <g id="Group_7410" data-name="Group 7410" transform="translate(117.512 102.921)">
          <path id="Path_23288" data-name="Path 23288" d="M3152.8,1843.311h-2.165l5.4-22.428,2.033.547Z" transform="translate(-3150.638 -1820.883)" fill="#3d3a55"/>
        </g>
        <path id="Path_23289" data-name="Path 23289" d="M2983.151,1360.461l.79,16.642a.4.4,0,0,1-.418.426l-.734-.068a.4.4,0,0,1-.351-.393l-.466-16.732A1.157,1.157,0,0,1,2983.151,1360.461Z" transform="translate(-2884.435 -1315.025)" fill="#c1215b"/>
      </g>
      <g id="Group_7427" data-name="Group 7427" transform="translate(62.178 168.133)">
        <rect id="Rectangle_5408" data-name="Rectangle 5408" width="45.956" height="19.998" transform="translate(44.436 67.386)" fill="#e03268"/>
        <path id="Path_23290" data-name="Path 23290" d="M340.281,1251.742c.573.043,46.044,0,46.044,0v45.641H356.849L341.069,1280.7Z" transform="translate(-331.15 -1226.506)" fill="#ff5b7e"/>
        <path id="Path_23291" data-name="Path 23291" d="M783.9,1454.672s-31.536,1.992-31.536,0v8.678s15.423,2.924,17.158,2.924,9.816,4.528,10.887,4.905,3.372-9.731,3.49-9.818S783.9,1454.672,783.9,1454.672Z" transform="translate(-694.432 -1403.794)" fill="#f9537f"/>
        <rect id="Rectangle_5409" data-name="Rectangle 5409" width="8.328" height="34.447" rx="4.164" transform="translate(4.967 25.236)" fill="#e03268"/>
        <path id="Path_23292" data-name="Path 23292" d="M306.488,1456.4h-37.24a6.248,6.248,0,0,0-6.068,6.414v22.615c0,9.017,6.915,16.326,15.444,16.326l38.344.248s-2.662-.75-3.1-1.559c-1.805-3.339-6.429-11.92-6.429-12.224C307.44,1487.845,306.488,1456.4,306.488,1456.4Z" transform="translate(-263.18 -1405.524)" fill="#f9537f"/>
        <path id="Path_23293" data-name="Path 23293" d="M633.831,1461.559V1483.6a7.775,7.775,0,0,1-7.551,7.982H604.975a7.775,7.775,0,0,1-7.551-7.982v-22.037a5.023,5.023,0,0,0-4.878-5.157h0a5.023,5.023,0,0,0-4.878,5.157v22.605c0,9.9,7.59,17.92,16.952,17.92h22.015c9.362,0,16.952-8.023,16.952-17.92v-22.605a5.023,5.023,0,0,0-4.878-5.157h0A5.023,5.023,0,0,0,633.831,1461.559Z" transform="translate(-549.238 -1405.524)" fill="#ff85a5"/>
        <path id="Path_23294" data-name="Path 23294" d="M982.595,1904.668l.776,6.584,4.176.342-.065-6.105Z" transform="translate(-897.393 -1797.625)" fill="#ffc0bb"/>
        <g id="Group_7415" data-name="Group 7415" transform="translate(84.642 112.971)">
          <path id="Path_23295" data-name="Path 23295" d="M989.732,1989.471l-11.409.082a.451.451,0,0,1-.448-.463l0-.347a.468.468,0,0,1,.455-.47l11.409-.081a.451.451,0,0,1,.447.464l0,.347A.468.468,0,0,1,989.732,1989.471Z" transform="translate(-977.875 -1983.653)" fill="#3d3a55"/>
          <path id="Path_23296" data-name="Path 23296" d="M979.65,1952.706l-.438,3.564c-.054.439.181.837.493.834l10.849-.078a.807.807,0,0,0,.713-.528,1.589,1.589,0,0,0-.29-1.585c-.959-1.412-4.148-1.735-5.7-2.935l-5.054.036C979.942,1952.015,979.7,1952.308,979.65,1952.706Z" transform="translate(-979.047 -1951.977)" fill="#e03268"/>
          <g id="Group_7412" data-name="Group 7412" transform="translate(5.365 0.306)">
            <path id="Path_23297" data-name="Path 23297" d="M1023.253,1956.184h0a.243.243,0,0,1-.059-.29,2.136,2.136,0,0,1,2.245-1.448c.078.013.13.12.116.231v0c-.014.107-.085.178-.161.165a1.842,1.842,0,0,0-1.963,1.255C1023.394,1956.191,1023.318,1956.225,1023.253,1956.184Z" transform="translate(-1023.171 -1954.417)" fill="#fff"/>
          </g>
          <g id="Group_7413" data-name="Group 7413" transform="translate(6.487 0.756)">
            <path id="Path_23298" data-name="Path 23298" d="M1032.735,1959.778h0a.243.243,0,0,1-.059-.29,2.135,2.135,0,0,1,2.245-1.448c.078.013.13.12.116.231v0c-.014.107-.085.178-.161.165a1.843,1.843,0,0,0-1.963,1.256C1032.876,1959.784,1032.8,1959.819,1032.735,1959.778Z" transform="translate(-1032.653 -1958.011)" fill="#fff"/>
          </g>
          <g id="Group_7414" data-name="Group 7414" transform="translate(7.532 1.176)">
            <path id="Path_23299" data-name="Path 23299" d="M1041.553,1963.132h0a.244.244,0,0,1-.059-.29,2.136,2.136,0,0,1,2.245-1.448c.078.013.13.12.116.231v0c-.014.107-.085.178-.161.165a1.842,1.842,0,0,0-1.963,1.255C1041.694,1963.138,1041.618,1963.172,1041.553,1963.132Z" transform="translate(-1041.471 -1961.364)" fill="#fff"/>
          </g>
          <path id="Path_23300" data-name="Path 23300" d="M982.6,1970.984c-.831-2.87-2.3-3.178-3.107-3.105l-.281,2.292c-.054.439.18.836.493.834Z" transform="translate(-979.047 -1965.879)" fill="#e87b50" opacity="0.3" style="mix-blend-mode: multiply;isolation: isolate"/>
        </g>
        <path id="Path_23301" data-name="Path 23301" d="M915.438,1905.787l1.846,6.353,4.25.031-.74-4.638Z" transform="translate(-838.19 -1798.604)" fill="#ffc0bb"/>
        <path id="Path_23302" data-name="Path 23302" d="M595.919,1061.156s-1.269-6.772,2.44-9.153a9.287,9.287,0,0,1,10.087-.357c2.555,1.6,3.923,6.915,2.642,9.874l-8.559-3.186Z" transform="translate(-556.328 -1050.33)" fill="#07085b"/>
        <g id="Group_7419" data-name="Group 7419" transform="translate(77.592 113.088)">
          <path id="Path_23303" data-name="Path 23303" d="M930.2,1990.411l-11.409.082a.451.451,0,0,1-.448-.464l0-.347a.468.468,0,0,1,.455-.47l11.409-.081a.451.451,0,0,1,.448.464l0,.347A.468.468,0,0,1,930.2,1990.411Z" transform="translate(-918.346 -1984.593)" fill="#3d3a55"/>
          <path id="Path_23304" data-name="Path 23304" d="M920.121,1953.645l-.437,3.564c-.054.44.181.836.493.834l10.85-.077a.808.808,0,0,0,.713-.529,1.588,1.588,0,0,0-.29-1.585c-.96-1.412-4.148-1.735-5.7-2.935l-5.054.036C920.413,1952.954,920.17,1953.247,920.121,1953.645Z" transform="translate(-919.518 -1952.916)" fill="#f9537f"/>
          <g id="Group_7416" data-name="Group 7416" transform="translate(5.364 0.306)">
            <path id="Path_23305" data-name="Path 23305" d="M963.724,1957.124h0a.243.243,0,0,1-.059-.29,2.136,2.136,0,0,1,2.246-1.447c.078.013.13.12.116.231v0c-.014.107-.085.178-.16.165a1.843,1.843,0,0,0-1.963,1.256C963.864,1957.13,963.788,1957.165,963.724,1957.124Z" transform="translate(-963.642 -1955.357)" fill="#fff"/>
          </g>
          <g id="Group_7417" data-name="Group 7417" transform="translate(6.487 0.756)">
            <path id="Path_23306" data-name="Path 23306" d="M973.205,1960.718h0a.244.244,0,0,1-.059-.29,2.136,2.136,0,0,1,2.246-1.448c.078.014.13.12.116.232v0c-.014.108-.085.178-.161.166a1.842,1.842,0,0,0-1.963,1.256C973.346,1960.724,973.27,1960.758,973.205,1960.718Z" transform="translate(-973.123 -1958.95)" fill="#fff"/>
          </g>
          <g id="Group_7418" data-name="Group 7418" transform="translate(7.532 1.176)">
            <path id="Path_23307" data-name="Path 23307" d="M982.024,1964.071h0a.243.243,0,0,1-.059-.29,2.136,2.136,0,0,1,2.246-1.448c.078.013.13.12.116.232v0c-.014.107-.085.178-.161.165a1.843,1.843,0,0,0-1.963,1.256C982.165,1964.078,982.089,1964.112,982.024,1964.071Z" transform="translate(-981.943 -1962.304)" fill="#fff"/>
          </g>
          <path id="Path_23308" data-name="Path 23308" d="M923.072,1971.924c-.831-2.87-2.3-3.177-3.107-3.105l-.281,2.292c-.054.44.181.836.493.834Z" transform="translate(-919.518 -1966.819)" fill="#e87b50" opacity="0.3" style="mix-blend-mode: multiply;isolation: isolate"/>
        </g>
        <path id="Path_23309" data-name="Path 23309" d="M625.978,1185.924l-.62,7.562,6.489-.319-.748-6.7Z" transform="translate(-582.464 -1168.935)" fill="#ffc0bb"/>
        <path id="Path_23310" data-name="Path 23310" d="M634.471,1189.655l-.356-3.184-5.121-.547-.215,2.619A5.052,5.052,0,0,0,634.471,1189.655Z" transform="translate(-585.481 -1168.935)" fill="#f99893"/>
        <path id="Path_23311" data-name="Path 23311" d="M708.964,1138.065a1.555,1.555,0,0,0,.462,2.084,1.476,1.476,0,0,0,1.875-.921,1.555,1.555,0,0,0-.462-2.084A1.476,1.476,0,0,0,708.964,1138.065Z" transform="translate(-655.995 -1126.171)" fill="#f99893"/>
        <path id="Path_23312" data-name="Path 23312" d="M598.952,1088.516a6.983,6.983,0,0,0,.592-1.131,13.482,13.482,0,0,0,.895-3.229c.034-.216.08-.43.13-.643a7.328,7.328,0,0,0,.116-2.745,6.916,6.916,0,0,0-13.775.619,1.464,1.464,0,0,0-1.34-.2,1.948,1.948,0,0,0-.817,2.552,1.865,1.865,0,0,0,2.241,1.379,1.317,1.317,0,0,0,.322-.181,6.6,6.6,0,0,0,6.073,6.537,6.115,6.115,0,0,0,4.323-1.529,3.211,3.211,0,0,0,.248-.21A6.152,6.152,0,0,0,598.952,1088.516Z" transform="translate(-546.529 -1071.655)" fill="#ffc0bb"/>
        <path id="Path_23313" data-name="Path 23313" d="M647.277,1131.623a.605.605,0,1,1-.576-.651A.612.612,0,0,1,647.277,1131.623Z" transform="translate(-600.721 -1120.868)" fill="#333"/>
        <path id="Path_23314" data-name="Path 23314" d="M690.98,1136.412a.605.605,0,1,1-.576-.651A.612.612,0,0,1,690.98,1136.412Z" transform="translate(-639.248 -1125.057)" fill="#333"/>
        <path id="Path_23315" data-name="Path 23315" d="M637.748,1119.8a6.056,6.056,0,0,0-.885-.218,2.991,2.991,0,0,0-.841-.019,2.783,2.783,0,0,0-.809.22c-.14.045-.261.13-.4.19s-.262.159-.415.227a2.65,2.65,0,0,1,.269-.415,2.094,2.094,0,0,1,.366-.339,1.926,1.926,0,0,1,.938-.371,1.992,1.992,0,0,1,.995.136A1.867,1.867,0,0,1,637.748,1119.8Z" transform="translate(-590.432 -1110.445)" fill="#07085b"/>
        <path id="Rectangle_5410" data-name="Rectangle 5410" d="M1.144,0H71.131a1.144,1.144,0,0,1,1.144,1.144v0a1.144,1.144,0,0,1-1.144,1.144H1.144A1.144,1.144,0,0,1,0,1.144v0A1.144,1.144,0,0,1,1.144,0Z" transform="translate(12.849 96.075)" fill="#3d3a55"/>
        <path id="Path_23316" data-name="Path 23316" d="M685.209,1124.231a1.84,1.84,0,0,1,.881-.42,1.986,1.986,0,0,1,1,.065,1.948,1.948,0,0,1,.85.551,2.126,2.126,0,0,1,.3.406,2.662,2.662,0,0,1,.185.461c-.137-.1-.244-.21-.364-.306s-.23-.2-.359-.267a2.807,2.807,0,0,0-.751-.378,2.989,2.989,0,0,0-.828-.149A6.1,6.1,0,0,0,685.209,1124.231Z" transform="translate(-635.227 -1114.572)" fill="#07085b"/>
        <path id="Path_23317" data-name="Path 23317" d="M599.817,1069.465a1.042,1.042,0,0,0-.691-.356l.263-2.164.705-1.281s2.7-3.416,2.8-3.5,2.1-1.143,2.221-1.2,2.854.483,2.854.483,4.87-.821,3.956,1.744-4.494,3.786-4.67,3.663a4.412,4.412,0,0,0,.717-2.211C605.365,1067.332,600.564,1069.187,599.817,1069.465Z" transform="translate(-559.339 -1059.631)" fill="#07085b"/>
        <path id="Path_23318" data-name="Path 23318" d="M671.962,1135.76a7.8,7.8,0,0,1,.464.915,7.419,7.419,0,0,1,.35.972,2.8,2.8,0,0,1,.094.525,1,1,0,0,1,0,.144c0,.025-.009.052-.015.078a.355.355,0,0,1-.037.084c-.01.014-.02.028-.031.041l-.026.024c-.017.015-.034.031-.052.045-.037.026-.073.053-.11.075a2.365,2.365,0,0,1-.466.218,3.192,3.192,0,0,1-.488.131,5.431,5.431,0,0,0,.864-.486c.033-.023.061-.05.091-.076l.041-.04.02-.02a.033.033,0,0,1,.005-.011.4.4,0,0,0,.015-.194,2.861,2.861,0,0,0-.1-.481c-.086-.324-.2-.645-.3-.968S672.061,1136.089,671.962,1135.76Z" transform="translate(-623.266 -1125.056)" fill="#f99893"/>
        <path id="Path_23319" data-name="Path 23319" d="M674.275,1231.4s5.081.227,7.738,3.646,10.19,36.965,10.19,36.965l-8.472-.958s-11.017-15.935-11.017-16.345S674.275,1231.4,674.275,1231.4Z" transform="translate(-624.211 -1208.717)" fill="#050849"/>
        <path id="Path_23320" data-name="Path 23320" d="M599.3,1231.732s9.726-.02,9.877-.01.9-.074,1.171.23a2.057,2.057,0,0,1-.6,2.8c-1.353.821,1.523.855-2.147,1.539s-2.57,1.607-5.352.41-3.14-.684-3.236-1.744A17.3,17.3,0,0,1,599.3,1231.732Z" transform="translate(-559.226 -1208.992)" fill="#ffc0bb"/>
        <path id="Path_23321" data-name="Path 23321" d="M493.043,1247.053c-.564-5.383-1.929-8.994-3.46-11.413a8.3,8.3,0,0,0-4.824-3.6,3.309,3.309,0,0,1-2.992,2.253c-2.523.308-7.959-2.48-8.055-2.474h0c-2.808.185-5.236.743-6.5,2.3-2.523,3.112-10.869,24.842-10.675,27.911s2.426,3.069,2.426,3.069l22.857.011v5.562l16.58,1.2C497.937,1271.555,494.642,1262.3,493.043,1247.053Z" transform="translate(-433.634 -1209.084)" fill="#07085b"/>
        <g id="Group_7420" data-name="Group 7420" transform="translate(49.953 32.089)">
          <path id="Path_23322" data-name="Path 23322" d="M780.323,1310.206c.146.006,6.035-3.768,6.035-3.768l1.1.247-.391.3.658-.175,1.071.175s-3.54,4.416-3.6,4.542a14.825,14.825,0,0,1-1.725.817C783.354,1312.412,780.323,1310.206,780.323,1310.206Z" transform="translate(-769.03 -1306.438)" fill="#daeef7"/>
          <path id="Path_23323" data-name="Path 23323" d="M700.747,1307.193l.535-.354.245.177v-.33l.335-.247,8.566,3.585s-2.744,1.839-2.833,1.769-4.975-1.014-5.064-1.156S700.747,1307.193,700.747,1307.193Z" transform="translate(-698.878 -1306.438)" fill="#daeef7"/>
          <path id="Path_23324" data-name="Path 23324" d="M686.972,1308.751l9.709,3.324,7.83-3.6a.682.682,0,0,1,.939.732l-1.491,14.108a.714.714,0,0,1-.356.551l-7.518,4.19-6.809-2.665-.175-.272-.883-.142-2.855-1.117a.642.642,0,0,1-.392-.654l1.123-13.834A.677.677,0,0,1,686.972,1308.751Z" transform="translate(-684.968 -1308.164)" fill="#feb546"/>
          <path id="Path_23325" data-name="Path 23325" d="M686.983,1310.878a.677.677,0,0,0-.879.617l-1.121,13.815a.666.666,0,0,0,.407.679l2.839,1.111.883.142.175.272,4.58,1.793c1.054-.214,2.1-.422,2.1-.422l.726-14.682Z" transform="translate(-684.979 -1310.291)" fill="#f4a640"/>
          <path id="Path_23326" data-name="Path 23326" d="M795.567,1331.572l6.055-2.8-.193,2.909-5.934,2.908Z" transform="translate(-782.404 -1325.975)" fill="#f4a640"/>
        </g>
        <path id="Path_23327" data-name="Path 23327" d="M809.492,1541.983s20.5-.684,25.159,3.967.13,38.992-.647,42.2c0,0-2.847,2.8-6.211,1.7s-2.07-16.414-2.07-16.414.388-14.635-.129-16.687-7.634-3.556-7.634-3.556-11-8.07-10.351-8.07S809.492,1541.983,809.492,1541.983Z" transform="translate(-743.106 -1480.352)" fill="#2b1c35"/>
        <path id="Path_23328" data-name="Path 23328" d="M670.046,1534.132s27.444-3.446,31.2,9.685,6.6,39.119,6.6,39.119a9.129,9.129,0,0,1-8.54,0s-6.954-27.9-9.559-30.639-19.7-1.068-19.7-1.068Z" transform="translate(-621.86 -1473.157)" fill="#3a2645"/>
        <path id="Path_23329" data-name="Path 23329" d="M584.116,1343.87a18.354,18.354,0,0,0-.421-1.853c-.171-.609-.359-1.21-.586-1.8l-.025-.067-.069,0-18.312-.97a8.976,8.976,0,0,1,.422-1.729c.195-.586.417-1.163.649-1.735.468-1.143.98-2.265,1.51-3.377,1.065-2.223,2.2-4.41,3.377-6.568l-.019-.012c-1.194,2.15-2.341,4.329-3.421,6.546-.538,1.11-1.058,2.229-1.535,3.371-.236.572-.463,1.148-.663,1.737a8.784,8.784,0,0,0-.447,1.82l-.007.063.062,0,18.3,1.074c.21.558.393,1.134.554,1.713a18.111,18.111,0,0,1,.415,1.83,11.868,11.868,0,0,1,.187,1.863,6.691,6.691,0,0,1-.186,1.763l-5.42-.167-2.75-.081-2.751-.049v.028l2.749.115,2.749.124,5.5.241.075,0,.022-.076a6.71,6.71,0,0,0,.233-1.906A12.1,12.1,0,0,0,584.116,1343.87Z" transform="translate(-528.877 -1291.245)" fill="#fff"/>
        <path id="Path_23330" data-name="Path 23330" d="M773.315,1334.759l-.7,15.47,1.072-.165.755-15.305A.972.972,0,0,0,773.315,1334.759Z" transform="translate(-712.28 -1298.96)" fill="#ed9935"/>
        <g id="Group_7421" data-name="Group 7421" transform="translate(54.731 49.839)">
          <path id="Path_23331" data-name="Path 23331" d="M732.4,1448.7c-1.359.633-4.115.173-4.115.173l-2.087-.768c-.292.21-.589.423-.883.631.029.1.059.2.088.3a18.338,18.338,0,0,1,.421,1.853,12.09,12.09,0,0,1,.191,1.9c0,.1,0,.209-.006.314l.294-.116a6.289,6.289,0,0,0,1.889-.134,29.087,29.087,0,0,0,3.328-.588,1.155,1.155,0,0,0,.82-.813,1.1,1.1,0,0,0,.39-1.122.563.563,0,0,0,.029-.074c.2-.646.087-.813-.013-.879a.574.574,0,0,0,.143-.254C733.111,1448.169,732.4,1448.7,732.4,1448.7Z" transform="translate(-725.314 -1448.105)" fill="#ffc0bb"/>
          <path id="Path_23332" data-name="Path 23332" d="M767.245,1465.482a2.141,2.141,0,0,1-.595.484,3.158,3.158,0,0,1-.7.293,3.576,3.576,0,0,1-.746.12c-.125.01-.251,0-.376,0s-.25-.022-.373-.038c.25-.013.5-.021.742-.054a5.44,5.44,0,0,0,.725-.143,4.36,4.36,0,0,0,.693-.26A2.984,2.984,0,0,0,767.245,1465.482Z" transform="translate(-759.817 -1463.305)" fill="#f99893"/>
          <path id="Path_23333" data-name="Path 23333" d="M763.436,1474.865a2.107,2.107,0,0,1-.629.433,3.125,3.125,0,0,1-.722.234,3.549,3.549,0,0,1-.752.057c-.126,0-.251-.019-.375-.028s-.247-.042-.37-.069c.25.008.5.02.744.008a5.3,5.3,0,0,0,.733-.082,4.261,4.261,0,0,0,.71-.2A2.945,2.945,0,0,0,763.436,1474.865Z" transform="translate(-756.41 -1471.512)" fill="#f99893"/>
          <path id="Path_23334" data-name="Path 23334" d="M767.245,1458.287a2.137,2.137,0,0,1-.595.484,3.141,3.141,0,0,1-.7.293,3.56,3.56,0,0,1-.746.12c-.125.01-.251,0-.376,0s-.25-.022-.373-.038c.25-.013.5-.022.742-.054a5.4,5.4,0,0,0,.725-.143,4.348,4.348,0,0,0,.693-.26A3,3,0,0,0,767.245,1458.287Z" transform="translate(-759.817 -1457.011)" fill="#f99893"/>
        </g>
        <path id="Path_23335" data-name="Path 23335" d="M653.631,1171.809c.57.071,1.124.173,1.681.256a15.244,15.244,0,0,0,1.682.18,4.125,4.125,0,0,1-1.713.048A6.2,6.2,0,0,1,653.631,1171.809Z" transform="translate(-607.389 -1156.588)" fill="#f99893"/>
        <g id="Group_7422" data-name="Group 7422" transform="translate(12.242 97.48)">
          <path id="Path_23336" data-name="Path 23336" d="M368.616,1849.806h-2.072l5.167-21.464,1.946.524Z" transform="translate(-366.544 -1828.342)" fill="#3d3a55"/>
        </g>
        <g id="Group_7425" data-name="Group 7425" transform="translate(50.231 97.48)">
          <g id="Group_7424" data-name="Group 7424">
            <g id="Group_7423" data-name="Group 7423">
              <path id="Path_23337" data-name="Path 23337" d="M689.39,1849.806h-2.072l5.167-21.464,1.946.524Z" transform="translate(-687.318 -1828.342)" fill="#3d3a55"/>
            </g>
          </g>
        </g>
        <g id="Group_7426" data-name="Group 7426" transform="translate(34.509 97.48)">
          <path id="Path_23338" data-name="Path 23338" d="M559.606,1849.806h2.072l-5.167-21.464-1.946.524Z" transform="translate(-554.565 -1828.342)" fill="#3d3a55"/>
        </g>
      </g>
      <rect id="Rectangle_5411" data-name="Rectangle 5411" width="63.663" height="3.853" transform="translate(338.717 115.457)" fill="#4188e4"/>
      <rect id="Rectangle_5412" data-name="Rectangle 5412" width="63.663" height="3.853" transform="translate(348.08 148.271)" fill="#4188e4"/>
      <g id="Group_7444" data-name="Group 7444" transform="translate(178.965 112.911)">
        <g id="Group_7443" data-name="Group 7443">
          <g id="Group_7428" data-name="Group 7428">
            <rect id="Rectangle_5413" data-name="Rectangle 5413" width="1.805" height="155.895" fill="#09083c"/>
          </g>
          <g id="Group_7429" data-name="Group 7429" transform="translate(19.334)">
            <rect id="Rectangle_5414" data-name="Rectangle 5414" width="1.805" height="155.895" fill="#09083c"/>
          </g>
          <g id="Group_7430" data-name="Group 7430" transform="translate(0.902 2.372)">
            <rect id="Rectangle_5415" data-name="Rectangle 5415" width="19.334" height="1.614" fill="#09083c"/>
          </g>
          <g id="Group_7431" data-name="Group 7431" transform="translate(0.902 12.836)">
            <rect id="Rectangle_5416" data-name="Rectangle 5416" width="19.334" height="1.614" fill="#09083c"/>
          </g>
          <g id="Group_7432" data-name="Group 7432" transform="translate(0.902 23.299)">
            <rect id="Rectangle_5417" data-name="Rectangle 5417" width="19.334" height="1.614" fill="#09083c"/>
          </g>
          <g id="Group_7433" data-name="Group 7433" transform="translate(0.902 33.762)">
            <rect id="Rectangle_5418" data-name="Rectangle 5418" width="19.334" height="1.614" fill="#09083c"/>
          </g>
          <g id="Group_7434" data-name="Group 7434" transform="translate(0.902 44.225)">
            <rect id="Rectangle_5419" data-name="Rectangle 5419" width="19.334" height="1.614" fill="#09083c"/>
          </g>
          <g id="Group_7435" data-name="Group 7435" transform="translate(0.902 54.688)">
            <rect id="Rectangle_5420" data-name="Rectangle 5420" width="19.334" height="1.614" fill="#09083c"/>
          </g>
          <g id="Group_7436" data-name="Group 7436" transform="translate(0.902 65.151)">
            <rect id="Rectangle_5421" data-name="Rectangle 5421" width="19.334" height="1.614" fill="#09083c"/>
          </g>
          <g id="Group_7437" data-name="Group 7437" transform="translate(0.902 75.614)">
            <rect id="Rectangle_5422" data-name="Rectangle 5422" width="19.334" height="1.614" fill="#09083c"/>
          </g>
          <g id="Group_7438" data-name="Group 7438" transform="translate(0.902 86.077)">
            <rect id="Rectangle_5423" data-name="Rectangle 5423" width="19.334" height="1.614" fill="#09083c"/>
          </g>
          <g id="Group_7439" data-name="Group 7439" transform="translate(0.902 96.54)">
            <rect id="Rectangle_5424" data-name="Rectangle 5424" width="19.334" height="1.614" fill="#09083c"/>
          </g>
          <g id="Group_7440" data-name="Group 7440" transform="translate(0.902 107.003)">
            <rect id="Rectangle_5425" data-name="Rectangle 5425" width="19.334" height="1.614" fill="#09083c"/>
          </g>
          <g id="Group_7441" data-name="Group 7441" transform="translate(0.902 117.467)">
            <rect id="Rectangle_5426" data-name="Rectangle 5426" width="19.334" height="1.614" fill="#09083c"/>
          </g>
          <g id="Group_7442" data-name="Group 7442" transform="translate(0.902 127.93)">
            <rect id="Rectangle_5427" data-name="Rectangle 5427" width="19.334" height="1.614" fill="#09083c"/>
          </g>
        </g>
      </g>
      <g id="Group_7449" data-name="Group 7449" transform="translate(406.55 74.529)">
        <ellipse id="Ellipse_1101" data-name="Ellipse 1101" cx="17.477" cy="18.475" rx="17.477" ry="18.475" fill="#4188e4"/>
        <path id="Path_23339" data-name="Path 23339" d="M3219.293,336.073c.532,8.97-5.915,16.7-14.4,17.261s-15.8-6.252-16.329-15.223,5.915-16.7,14.4-17.261S3218.761,327.1,3219.293,336.073Z" transform="translate(-3186.451 -318.617)" fill="#fff"/>
        <g id="Group_7448" data-name="Group 7448" transform="translate(2.359 2.606)">
          <rect id="Rectangle_5428" data-name="Rectangle 5428" width="0.421" height="5.182" transform="translate(0 15.998) rotate(-90)" fill="#b0c1ec"/>
          <rect id="Rectangle_5429" data-name="Rectangle 5429" width="0.421" height="5.182" transform="translate(25.086 15.998) rotate(-90)" fill="#b0c1ec"/>
          <rect id="Rectangle_5430" data-name="Rectangle 5430" width="0.398" height="5.478" transform="translate(14.898)" fill="#b0c1ec"/>
          <rect id="Rectangle_5431" data-name="Rectangle 5431" width="0.398" height="5.478" transform="translate(14.898 26.413)" fill="#b0c1ec"/>
          <path id="Path_23340" data-name="Path 23340" d="M3315.763,447.543a.43.43,0,1,1-.429-.453A.442.442,0,0,1,3315.763,447.543Z" transform="translate(-3300.215 -431.674)" fill="#b0c1ec"/>
          <g id="Group_7445" data-name="Group 7445" transform="translate(7.218 7.518)">
            <path id="Path_23341" data-name="Path 23341" d="M3259.721,392.61a.187.187,0,0,1-.136-.059l-7.708-8.148a.211.211,0,0,1,0-.287.185.185,0,0,1,.271,0l7.708,8.148a.21.21,0,0,1,0,.287A.186.186,0,0,1,3259.721,392.61Z" transform="translate(-3251.821 -384.056)" fill="#b0c1ec"/>
          </g>
          <g id="Group_7447" data-name="Group 7447" transform="translate(15.028 15.87)">
            <g id="Group_7446" data-name="Group 7446">
              <path id="Path_23342" data-name="Path 23342" d="M3320.335,458.944a.144.144,0,0,1-.07-.085l-2.492-7.956a.15.15,0,0,1,.088-.186.138.138,0,0,1,.177.094l2.492,7.956a.15.15,0,0,1-.089.186A.133.133,0,0,1,3320.335,458.944Z" transform="translate(-3317.767 -450.709)" fill="#b0c1ec"/>
            </g>
          </g>
        </g>
      </g>
    </g>
  </g>
</svg>
